<svg width="94" height="93" viewBox="0 0 94 93" fill="currentColor" xmlns="http://www.w3.org/2000/svg">
<g clip-path="url(#clip0_83_754)">
<path d="M-6.10352e-05 14.5159L15.6625 11.8766L21.5534 22.9413L5.89081 25.587L-6.10352e-05 14.5159Z" fill="currentColor"/>
<path d="M23.4844 10.557L39.147 7.91772L45.0443 18.9888L29.3817 21.6281L23.4844 10.557Z" fill="currentColor"/>
<path d="M46.9719 6.59828L62.6282 3.95898L68.5254 15.0301L52.8628 17.663L46.9719 6.59828Z" fill="currentColor"/>
<path d="M70.4625 2.63942L86.1124 0.00012207L92.0097 11.0649L76.3535 13.7042L70.4625 2.63942Z" fill="currentColor"/>
<path d="M93.9999 29.5555H78.1214L74.1517 41.4514H90.0303L93.9999 29.5555Z" fill="currentColor"/>
<path d="M70.1822 29.5555H54.3037L50.334 41.4514H66.2126L70.1822 29.5555Z" fill="currentColor"/>
<path d="M46.3643 29.5555H30.4857L26.5161 41.4514H42.3946L46.3643 29.5555Z" fill="currentColor"/>
<path d="M22.5466 29.5555H6.66806L2.69843 41.4514H18.577L22.5466 29.5555Z" fill="currentColor"/>
<path d="M2.69836 45.4167V65.2432V81.1044V85.0696C2.69836 89.4441 6.25198 93.0002 10.6376 93.0002H82.091C86.4703 93.0002 90.0303 89.4441 90.0303 85.0696V81.1044V65.2432V45.4167H2.69836Z" fill="currentColor"/>
</g>
<defs>
<clipPath id="clip0_83_754">
<rect width="94" height="93" fill="currentColor"/>
</clipPath>
</defs>
</svg>
