<svg width="73" height="102" viewBox="0 0 73 102" fill="none" xmlns="http://www.w3.org/2000/svg">
<path d="M73 32.4444H68.9444V4.05556C68.9444 1.81689 67.1276 0 64.8889 0C62.6502 0 60.8333 1.81689 60.8333 4.05556V32.4444H56.7778V40.5556H60.8333V44.6111H12.1667V40.5556H16.2222V32.4444H12.1667V4.05556C12.1667 1.81689 10.3498 0 8.11111 0C5.87244 0 4.05556 1.81689 4.05556 4.05556V32.4444H0V40.5556H4.05556V52.7222H68.9444V40.5556H73V32.4444Z" fill="black"/>
<path d="M46.9879 89.2222H26.0126L36.5003 78.7345L46.9879 89.2222ZM36.5003 67.2654L23.1453 53.9104C22.3545 53.1196 21.3163 52.7222 20.278 52.7222C19.2398 52.7222 18.2016 53.1196 17.4107 53.9104C15.825 55.4961 15.825 58.0593 17.4107 59.645L30.7657 72.9999L9.29961 94.466C7.71389 96.0517 7.71389 98.6149 9.29961 100.201C10.0904 100.991 11.1287 101.389 12.1669 101.389C13.2051 101.389 14.2433 100.991 15.0342 100.201L21.957 93.2777H51.0435L57.9663 100.201C58.7571 100.991 59.7954 101.389 60.8336 101.389C61.8718 101.389 62.91 100.991 63.7008 100.201C65.2866 98.6149 65.2866 96.0517 63.7008 94.466L42.2348 72.9999L55.5897 59.645C57.1755 58.0593 57.1755 55.4961 55.5897 53.9104C54.7989 53.1196 53.7607 52.7222 52.7225 52.7222C51.6842 52.7222 50.646 53.1196 49.8552 53.9104L36.5003 67.2654Z" fill="black"/>
<path d="M56.7762 4.05566H16.2206V28.389H56.7762V4.05566Z" fill="black"/>
</svg>
