<svg width="103" height="63" viewBox="0 0 103 63" fill="none" xmlns="http://www.w3.org/2000/svg">
<g clip-path="url(#clip0_83_737)">
<path d="M71.569 36.2376C71.569 45.7884 60.2951 53.55 46.4041 53.55C32.5131 53.55 21.2392 45.7884 21.2392 36.2376C21.2392 26.6868 35.1806 15.75 46.4041 15.75C57.6277 15.75 71.569 26.6616 71.569 36.2376Z" fill="black"/>
<path d="M63.2898 49.0643C63.2898 49.0643 95.0731 31.2228 103 31.4244V28.4004C103 28.2744 97.816 28.4004 97.4386 28.4004C94.6453 28.4004 91.8268 28.4004 89.0335 28.5516C84.6616 29.1178 80.2441 29.2445 75.8471 28.9295C72.5795 28.2982 69.4674 27.0311 66.687 25.2C66.3599 24.9984 65.6804 24.3684 64.1705 23.3604" fill="black"/>
<path d="M13.4632 44.73C9.88788 44.9374 6.36057 43.8257 3.54826 41.6052C4.02867e-06 38.4804 -0.855603 33.4404 0.830446 26.6616C0.819514 26.5527 0.819514 26.443 0.830446 26.334C3.34694 19.4796 7.17201 15.5989 12.1043 14.8177C21.5915 13.2805 30.7264 24.318 31.7581 25.578C32.2329 26.2335 32.4374 27.0468 32.3292 27.8493C32.221 28.6517 31.8083 29.3816 31.1769 29.8874C30.5455 30.3932 29.7439 30.6361 28.9383 30.5657C28.1328 30.4953 27.3853 30.117 26.851 29.5092C24.8629 26.9893 18.0936 20.1853 13.1109 21.0421C10.5944 21.4453 8.48058 23.9149 6.79453 28.3752C6.06475 31.3237 5.66211 35.1288 7.62497 36.918C10.9467 39.8916 20.2074 37.7749 24.3345 36.2628C25.1187 35.9721 25.9861 36.0053 26.7459 36.355C27.5057 36.7047 28.0957 37.3423 28.386 38.1276C28.6764 38.913 28.6433 39.7816 28.294 40.5425C27.9448 41.3033 27.308 41.8941 26.5238 42.1848C22.3007 43.7286 17.8565 44.5795 13.3626 44.7048" fill="black"/>
<path d="M55.841 59.85H36.9673C36.133 59.85 35.3329 60.1818 34.743 60.7726C34.1531 61.3633 33.8217 62.1645 33.8217 63H58.9866C58.9866 62.1645 58.6552 61.3633 58.0652 60.7726C57.4753 60.1818 56.6752 59.85 55.841 59.85Z" fill="black"/>
<path d="M36.9673 63L41.6731 50.4H51.1099L55.8409 63" fill="black"/>
<path d="M40.1129 18.9C41.6518 15.9355 42.7134 12.7462 43.2585 9.45002C43.2585 6.30002 49.5497 6.30002 49.5497 9.45002C50.0948 12.7462 51.1565 15.9355 52.6953 18.9H40.1129Z" fill="black"/>
<path d="M52.6953 6.3C52.6953 7.54602 52.3264 8.76406 51.6351 9.80009C50.9438 10.8361 49.9612 11.6436 48.8117 12.1204C47.6621 12.5973 46.3971 12.722 45.1768 12.4789C43.9564 12.2359 42.8354 11.6358 41.9555 10.7548C41.0757 9.8737 40.4765 8.75115 40.2338 7.52907C39.991 6.30699 40.1156 5.04027 40.5918 3.88909C41.0679 2.73792 41.8743 1.75399 42.9089 1.06174C43.9435 0.369489 45.1598 0 46.4041 0C48.0706 0.00663555 49.667 0.672514 50.8454 1.85256C52.0238 3.0326 52.6887 4.63118 52.6953 6.3Z" fill="black"/>
</g>
<defs>
<clipPath id="clip0_83_737">
<rect width="103" height="63" fill="white"/>
</clipPath>
</defs>
</svg>
