<svg width="146" height="52" viewBox="0 0 146 52" fill="none" xmlns="http://www.w3.org/2000/svg">
<g clip-path="url(#clip0_83_818)">
<path d="M137.533 7.69214H5.71379V46.3869H137.533V7.69214Z" fill="#EC008C"/>
<path d="M142.49 45.9899C142.416 46.4929 143.268 46.3117 143.422 46.387C143.233 45.5439 142.27 46.0103 142.49 45.9899Z" fill="#EC008C"/>
<path d="M140.901 37.8251L140.048 36.6011L140.553 37.6784L140.901 37.8251Z" fill="#EC008C"/>
<path d="M140.569 29.907C139.115 30.6401 140.803 32.7236 140.286 34.1064L139.956 34.3345L141.123 34.9597C140.942 33.2775 140.164 31.0923 140.569 29.907Z" fill="#EC008C"/>
<path d="M143.714 25.7627C143.149 26.0193 143.227 24.8665 143.536 26.73C143.597 26.6363 143.634 26.6078 143.679 26.5548C143.671 26.3858 143.673 26.1557 143.714 25.7627Z" fill="#EC008C"/>
<path d="M143.679 26.5528C143.72 27.3735 144.155 26.0192 143.679 26.5528V26.5528Z" fill="#EC008C"/>
<path d="M143.355 22.773L143.86 23.8504C144.194 23.6263 144.27 22.6671 144.512 23.0235C144.237 21.9177 143.905 22.1437 143.355 22.773Z" fill="#EC008C"/>
<path d="M142.294 21.7505L142.508 22.3085C142.648 22.2107 142.697 22.0641 142.294 21.7505Z" fill="#EC008C"/>
<path d="M142.96 23.4939L142.508 22.3086C142.274 22.4654 141.801 22.4817 142.671 22.8544C142.241 22.7566 142.655 22.9909 142.96 23.4939Z" fill="#EC008C"/>
<path d="M142.738 24.1641C142.42 24.7689 142.221 25.5509 141.72 24.4675C141.919 26.5305 142.942 26.2271 142.738 24.1641Z" fill="#EC008C"/>
<path d="M139.066 29.5078L138.64 30.3162L139.127 31.0148C138.885 30.6686 139.52 29.4589 139.066 29.5078Z" fill="#EC008C"/>
<path d="M144.107 16.0584C143.799 15.9912 143.284 16.4208 142.887 16.5003L143.243 17.2987C143.455 16.8873 143.65 16.1113 144.107 16.0584Z" fill="#EC008C"/>
<path d="M142.889 16.5003C142.889 16.5003 142.357 15.3801 142.357 15.1602C142.341 15.651 142.345 15.765 142.365 15.9544C142.388 16.1214 142.422 16.2436 142.471 16.3312C142.569 16.5023 142.718 16.5328 142.889 16.5003Z" fill="#EC008C"/>
<path d="M141.797 23.5163L140.665 21.1824L140.681 21.5591L141.797 23.5163Z" fill="#EC008C"/>
<path d="M144.147 8.10135C144.147 8.10135 144.326 8.32733 144.506 8.55542C144.685 8.79777 144.864 9.0402 144.864 9.0402C144.864 8.99336 143.783 7.29688 143.783 7.34373L144.147 8.10135Z" fill="#EC008C"/>
<path d="M144.021 2.65571C144.614 3.08136 145.025 0.42772 145.39 1.11201C145.361 0.694511 145.302 0.323814 145.225 0C143.909 0.211803 142.624 0.57229 141.5 0.906286C142.502 0.731142 143.459 0.706692 144.353 0.869617C144.28 1.40116 144.172 1.99994 144.021 2.65571Z" fill="#EC008C"/>
<path d="M139.078 1.5762C139.769 1.43364 140.577 1.17907 141.5 0.908203C140.726 1.04669 139.93 1.24017 139.078 1.5762Z" fill="#EC008C"/>
<path d="M142.51 11.8406C142.697 11.635 143.186 11.2031 143.396 9.94653L142.524 11.0687C142.52 11.3029 142.516 11.5698 142.51 11.8406Z" fill="#EC008C"/>
<path d="M142.496 11.1055L142.524 11.0669C142.549 10.2237 142.565 9.63917 142.571 9.38867C142.563 9.60658 142.538 10.1219 142.496 11.1055Z" fill="#EC008C"/>
<path d="M142.506 12.0322C142.508 11.9609 142.508 11.9079 142.51 11.8386C142.424 11.9364 142.396 11.9894 142.506 12.0322Z" fill="#EC008C"/>
<path d="M141.467 18.4349C140.98 17.7343 140.459 16.2741 139.718 17.6895C140.312 18.1905 140.736 17.382 141.467 18.4349Z" fill="#EC008C"/>
<path d="M141.418 13.2031L141.219 15.1033C141.449 15.0626 141.783 14.6858 142.025 15.2194L141.418 13.2031Z" fill="#EC008C"/>
<path d="M141.418 13.2032L141.492 12.4803L141.141 12.354L141.418 13.2032Z" fill="#EC008C"/>
<path d="M142.16 2.39073C140.891 2.76953 139.913 2.79999 138.773 2.86109C139.82 3.03216 140.913 3.12391 142.039 3.12188C142.088 3.09133 142.143 3.05867 142.2 3.02405C142.4 2.95684 142.65 2.89576 142.769 2.45587C142.691 2.40903 142.502 2.38055 142.16 2.39073Z" fill="#EC008C"/>
<path d="M142.593 6.39273C142.577 6.33978 142.559 6.2787 142.545 6.22778C142.471 6.40496 142.447 6.51696 142.593 6.39273Z" fill="#EC008C"/>
<path d="M128.765 3.01412L128.79 2.86346L128.657 2.85327L128.765 3.01412Z" fill="#EC008C"/>
<path d="M141.94 3.41331C141.773 4.42141 141.984 4.71669 142.253 4.98958C142.168 4.42953 142.113 3.82265 142.103 3.12207H142.039C141.885 3.21983 141.795 3.29306 141.929 3.2951C141.927 3.32361 141.932 3.36443 141.94 3.41331Z" fill="#EC008C"/>
<path d="M135.6 1.98171C136.009 2.165 136.48 2.31771 136.962 2.46027C136.665 2.18533 135.877 1.75361 135.6 1.98171Z" fill="#EC008C"/>
<path d="M142.785 5.7473C142.799 5.78192 142.815 5.81039 142.824 5.8552C143.011 5.4153 142.917 5.52124 142.785 5.7473Z" fill="#EC008C"/>
<path d="M142.785 5.74737C142.659 5.37264 142.445 5.18322 142.253 4.98975C142.321 5.46019 142.416 5.88175 142.545 6.22593C142.606 6.07522 142.699 5.894 142.785 5.74737Z" fill="#EC008C"/>
<path d="M126.643 8.44169C126.739 7.63521 128.17 6.88975 129.405 7.75529C129.989 7.45388 130.193 6.63922 130.005 5.71462C129.753 4.79002 129.286 3.75547 128.765 3.01416C128.726 3.36649 128.726 3.69242 127.476 4.16694C127.914 4.60684 130.25 5.19734 129.197 5.92643C127.541 6.34189 127.839 5.63933 127.034 5.21369C127.72 6.21771 124.928 6.67796 125.289 8.15244L126.741 7.6331C126.767 7.86323 126.24 8.23192 126.643 8.44169Z" fill="#EC008C"/>
<path d="M132.011 3.09577L132.85 2.99595C131.942 2.85543 131.352 2.53368 130.036 1.90234C129.604 2.00214 129.511 2.09371 129.36 2.18128C129.221 2.26885 129.117 2.35237 129.038 2.42976C128.879 2.58861 128.82 2.72911 128.79 2.86556L132.315 2.97756L132.011 3.09577Z" fill="#EC008C"/>
<path d="M136.545 2.99169C135.38 3.87148 133.533 4.24421 134.18 5.19121C136.201 5.13215 135.97 4.46004 137.526 4.0792C133.797 4.29508 138.919 3.59041 136.52 3.09349C137.363 2.94482 138.091 2.89803 138.773 2.86341C138.139 2.75547 137.535 2.62305 136.96 2.46216L137.021 2.51511L137.044 2.51312L137.032 2.52729C137.144 2.63727 137.16 2.70255 137.003 2.63941C136.981 2.65163 136.932 2.65565 136.907 2.65769C136.812 2.78192 136.679 2.88782 136.545 2.99169C135.506 2.81043 136.482 2.76155 136.907 2.65769C136.946 2.61492 136.999 2.57421 137.032 2.52941L137.021 2.51722L132.848 2.99778C133.649 3.11793 134.659 3.09351 136.545 2.99169Z" fill="#EC008C"/>
<path d="M137.83 16.3863C137.907 16.311 137.968 16.313 138.034 16.3089C137.926 16.1501 137.854 16.091 137.83 16.3863Z" fill="#EC008C"/>
<path d="M138.361 15.3638C138.484 15.5675 138.834 15.7039 138.744 16.2843C138.478 16.7832 138.323 16.2803 138.032 16.3088C138.266 16.655 138.663 17.5246 139.091 16.4351L138.97 16.2619C139.27 15.4554 140.367 13.4414 140.486 13.6756C139.697 14.1949 139.135 14.6103 138.361 15.3638Z" fill="#EC008C"/>
<path d="M140.072 7.79198C139.934 7.0527 139.791 6.31339 139.791 5.43359L139.594 5.58226C139.6 5.59244 139.606 5.60066 139.624 5.60066L138.883 7.51093L139.339 7.04865C139.16 8.60866 139.722 7.86529 140.072 7.79198Z" fill="#EC008C"/>
<path d="M128.696 1.49268L127.521 2.80021L128.425 2.41935L128.696 1.49268Z" fill="#EC008C"/>
<path d="M125.881 1.72314L125.183 2.20991L125.784 2.52962L125.881 1.72314Z" fill="#EC008C"/>
<path d="M10.5506 36.7112L10.7787 37.3078C10.7075 37.0247 10.6321 36.8436 10.5506 36.7112Z" fill="#EC008C"/>
<path d="M10.6057 32.3835L10.2106 32.2776C10.4285 32.4792 10.5894 32.5607 10.6057 32.3835Z" fill="#EC008C"/>
<path d="M60.8987 2.61923C60.0291 1.86774 59.0576 0.700771 59.1615 1.60704L59.4283 2.49095C60.0372 2.3321 60.5036 2.42983 60.8987 2.61923Z" fill="#EC008C"/>
<path d="M16.4628 7.89572L16.7174 8.16447C16.9292 7.86305 17.1227 7.58002 17.3039 7.31934C17.0473 7.49448 16.7602 7.69003 16.4628 7.89572Z" fill="#EC008C"/>
<path d="M15.8478 11.5513L14.7012 10.9832C14.9578 11.1807 15.3264 11.3721 15.8478 11.5513Z" fill="#EC008C"/>
<path d="M19.6561 40.6154L20.3546 39.7173C19.263 39.7193 19.7437 40.1734 19.6561 40.6154Z" fill="#EC008C"/>
<path d="M98.7258 2.85329C97.9743 2.50911 97.3776 2.36455 96.8522 2.32178C97.7584 2.82888 98.4854 3.59053 98.7258 2.85329Z" fill="#EC008C"/>
<path d="M1.1743 35.0087C1.33519 35.3752 1.51646 35.53 1.71197 35.5198C1.55923 35.143 1.39221 34.9292 1.1743 35.0087Z" fill="#EC008C"/>
<path d="M94.6832 2.3256C94.8156 2.41317 94.9459 2.45803 95.0804 2.53542C95.6302 2.38675 96.1801 2.26659 96.8522 2.32361C96.1842 1.94277 95.4184 1.71056 94.6832 2.3256Z" fill="#EC008C"/>
<path d="M105.318 41.3464C105.381 41.3871 105.455 41.4034 105.514 41.4523C105.532 41.3321 105.446 41.326 105.318 41.3464Z" fill="#EC008C"/>
<path d="M130.276 50.2625C130.03 50.3174 129.629 50.3175 129.25 50.3297C129.435 50.3888 129.745 50.3846 130.276 50.2625Z" fill="#EC008C"/>
<path d="M115.155 2.14446C115.242 2.04671 115.715 2.08744 115.155 2.14446V2.14446Z" fill="#EC008C"/>
<path d="M117.878 5.63916C117.758 5.73895 117.668 5.86318 117.656 6.06887C117.701 5.85503 117.78 5.72062 117.878 5.63916Z" fill="#EC008C"/>
<path d="M89.1031 7.82453L89.0562 7.82056C89.2191 7.9957 89.1906 7.96098 89.1031 7.82453Z" fill="#EC008C"/>
<path d="M115.998 2.54573C115.786 2.4378 115.544 2.34609 115.281 2.28296C115.397 2.3522 115.613 2.4378 115.998 2.54573Z" fill="#EC008C"/>
<path d="M115.884 2.12828C116.079 2.1629 116.23 2.18732 116.373 2.2138C116.444 2.06716 116.381 1.9735 115.884 2.12828Z" fill="#EC008C"/>
<path d="M114.373 2.19139C114.695 2.17714 114.994 2.21987 115.281 2.283C115.169 2.22394 115.124 2.17101 115.155 2.14453C114.988 2.15471 114.758 2.16899 114.373 2.19139Z" fill="#EC008C"/>
<path d="M59.4201 43.7109C59.4588 43.7394 59.4995 43.7556 59.5402 43.7943C60.1064 43.4277 59.858 43.4869 59.4201 43.7109Z" fill="#EC008C"/>
<path d="M46.3148 11.7958C46.3433 11.7856 46.3576 11.7632 46.38 11.753L46.2964 11.7224L46.3148 11.7958Z" fill="#EC008C"/>
<path d="M44.3027 12.4536C45.158 11.3539 45.6468 11.4883 46.2965 11.7225L45.6305 9.1748L44.3027 12.4536Z" fill="#EC008C"/>
<path d="M11.0435 41.2954C11.0801 41.1692 11.1269 41.043 11.0577 41.043C11.239 40.7843 11.4182 40.5419 11.5995 40.3179C11.7807 40.2059 11.9436 40.1061 12.0862 40.0165C13.0291 39.2976 12.7745 39.4768 13.5708 38.5318C12.9904 39.1896 12.632 39.5521 12.3448 39.7578C12.017 39.9533 12.0882 39.6479 11.9762 39.5318C11.8663 39.4076 11.575 39.3566 10.5221 39.715C10.5221 39.6947 11.1025 39.1753 11.1025 39.1957C11.076 39.2894 11.239 39.2527 11.2125 39.3383C11.8744 38.8739 11.3754 38.986 10.7583 38.9066C10.1412 38.8007 9.40813 38.8577 9.60772 37.54C9.81952 36.7254 10.2207 36.1572 10.5486 36.7131L9.86428 34.8986C9.91723 34.3711 10.3979 34.5015 10.345 35.0249L10.125 32.2613L10.2064 32.2817C9.77059 31.8886 9.10263 30.9924 8.81548 30.5566C9.21057 29.8519 9.10872 30.909 9.4529 30.7277L8.78285 29.1982C9.49972 28.573 10.1942 29.8418 10.0924 30.9008C12.854 29.4711 9.39589 29.63 11.0089 26.5446L11.3612 27.9885C12.9314 27.0578 12.3611 25.9275 13.3407 24.2962C12.8295 24.6832 10.8744 27.5669 10.184 25.9051C10.3958 25.4387 10.4936 24.8217 9.93761 23.9236C10.9192 23.9154 10.6789 23.0397 10.6239 21.9441L11.9273 22.0194C11.5506 20.8341 10.8887 20.9278 10.3021 20.2313C10.4284 18.9116 11.4386 18.6387 12.2898 18.3271C12.4976 16.2132 10.6708 19.7853 10.4264 17.2844C10.5506 16.8445 10.6117 16.4372 10.6198 16.0421C10.6239 15.871 10.6137 15.5899 10.5934 15.5145C10.573 15.4392 10.5425 15.3638 10.4977 15.2823C10.3307 14.9606 10.0028 14.5553 9.61176 13.8588C10.0598 13.4841 10.4101 14.315 10.7808 14.2784C10.7808 14.3191 9.74209 13.313 9.74209 13.2723C9.76653 13.1562 10.0843 13.3986 10.2472 13.5146C9.84395 12.8283 8.9438 12.698 8.58943 11.5371C7.96014 10.9262 8.28798 10.7348 8.71566 10.6961C9.92538 11.2439 10.9294 11.9547 10.9152 11.0403C11.3653 11.4109 11.2695 11.8385 11.6483 12.3436C11.852 11.808 12.0923 11.6166 12.2511 11.3743C12.4426 11.134 12.5464 10.8468 13.1635 10.1279C13.2063 10.1279 13.3794 10.3396 13.8396 10.5555C14.2673 10.7673 14.6971 10.9832 14.6971 10.9832C13.4364 10.0057 15.0473 8.8469 16.4587 7.89582C16.0106 7.42334 15.6298 7.0099 15.3732 6.81439L17.6236 6.11382C17.8965 6.32766 17.6684 6.77363 17.2998 7.31943C17.4525 7.21149 17.5971 7.1076 17.7132 7.00781C18.5177 7.48843 18.1002 8.23995 17.5218 8.96904L16.7133 8.16456C16.1573 8.95678 15.6359 9.83262 15.752 10.5943C15.8966 10.4456 16.1797 10.3132 16.4893 10.2419C16.3447 10.4557 16.251 10.6471 16.3182 10.7795C16.3935 10.916 16.6277 10.6288 16.9964 10.2968L17.5095 11.7489L17.6338 11.1727L20.5807 12.0809C22.6865 10.6187 24.5215 8.46809 27.8655 7.86934C27.0366 8.93243 27.6883 9.60849 27.6435 10.8691C26.7311 9.53518 25.053 11.4373 23.3179 11.1665C24.2221 11.3049 24.0246 11.9058 23.7924 12.1176L26.8859 10.9018C26.8167 11.9344 27.5417 11.6756 28.3522 12.1033C27.7413 10.0627 30.6576 10.745 31.9142 10.1177C31.9916 10.802 31.6922 11.5026 30.1567 11.3376C31.849 12.8732 32.3439 8.94255 34.0078 10.248C33.6331 10.2643 33.4314 10.1584 33.2848 10.5067C34.1605 9.89773 36.2989 10.3804 35.7959 10.975L35.4212 10.9913C37.9098 11.2316 42.9951 11.0056 43.3658 9.27247C43.3923 9.49445 43.0399 11.36 42.8913 11.7103L47.331 5.88163C46.94 7.36832 48.4409 10.914 46.3779 11.753C46.9705 11.9648 47.7016 12.2133 48.9521 11.6899C48.5488 11.4781 47.946 9.53516 48.4959 9.40075C50.0131 11.0585 49.5509 10.2887 51.4184 11.7001C50.8135 11.3803 51.4856 9.0485 52.4428 9.12181C52.2941 9.4721 52.5222 11.4252 52.1719 11.6675L54.5567 9.37638C53.96 9.7898 54.4508 11.3172 54.9844 11.9648C54.738 11.5168 57.0454 12.0077 57.6787 11.7775L56.6686 11.248C59.3589 11.5942 59.3284 8.02812 61.9963 8.14828C61.6725 8.62076 61.1959 11.0607 62.5543 11.3478C63.1775 10.1748 65.3098 5.70439 67.6702 4.80219L68.1243 5.4723L69.9369 4.70859C68.8086 6.47429 65.6438 10.1869 63.9147 11.6328C64.9208 12.1623 64.1937 12.423 65.7028 12.3599C66.2344 12.9892 64.8801 13.3151 64.4361 13.3497L67.9472 13.7549C67.7924 12.3864 70.6313 12.3824 70.499 11.2419L66.6865 12.6613C66.5317 11.2948 68.8901 8.77554 71.3788 9.01789C72.0121 9.56369 70.9063 11.4537 70.9572 11.9099C71.279 11.4395 73.3176 11.0117 73.5457 11.3457L72.4887 12.0768C73.8756 12.5921 74.7493 10.2623 76.4131 11.5677C76.9874 11.6573 78.13 13.3314 78.2297 12.5228C77.2929 10.9588 77.1097 6.12603 77.7349 4.95297C77.9365 5.05887 80.749 6.44577 81.4068 7.21763C82.3517 8.44364 79.9873 10.1381 80.7917 11.189C80.8264 10.8142 81.3477 10.354 81.5656 10.2073C82.1685 10.525 81.3172 11.3641 82.6267 11.195C82.8446 9.80611 85.2926 11.3132 83.2458 10.022C84.5289 9.62691 84.6083 10.3071 86.1133 10.246C85.6347 9.34991 87.4656 7.1932 88.7507 6.79811C88.6753 7.15247 88.9625 7.61073 89.103 7.82049C91.7302 7.94676 93.1415 8.57596 95.5935 8.58818C95.8175 8.92422 97.0008 9.33157 96.4977 9.92828C96.8501 9.68186 97.1739 9.21145 97.9294 9.17887C99.3917 10.3784 96.2432 9.36621 97.3592 10.8081C97.4549 10.0016 99.3143 9.69408 100.39 9.19105C100.06 7.94467 97.903 8.95278 96.8256 9.45581C96.8195 7.73695 98.6973 5.93662 101.259 5.14439C103.294 4.71671 102.141 6.2543 102.493 6.00991C106.318 6.30928 105.752 3.00803 108.925 4.2483C110.186 5.34397 108.982 6.42744 109.263 7.21763C107.605 7.63105 106.715 6.52106 105.591 6.5679L106.976 7.08525C106.448 7.44979 105.341 7.72477 104.738 7.40706C105.795 8.39072 111.198 7.59647 114.147 8.50478C114.672 8.13616 115.576 7.75938 115.149 7.31744L114.214 7.47008C113.356 6.58622 115.971 6.24814 114.788 5.83676C116.041 5.2156 117.446 4.24021 119.207 4.73917L119.539 5.98753C119.501 5.62095 118.387 5.24415 117.89 5.62296C118.623 5.07105 120.592 7.31338 121.399 5.67802L120.165 4.81238C121.421 4.18308 122.975 2.85933 124.537 3.25239C123.824 2.02027 124.177 3.39296 123.065 1.95107C124.028 3.74529 119.069 1.87567 120.615 3.76153C119.476 2.08748 118.643 3.0508 117.155 1.62316C117.199 2.03455 117.684 2.41129 116.371 2.20763C116.311 2.32983 116.171 2.48056 116.083 2.57221C116.043 2.55795 116.028 2.55186 115.994 2.53964L116.065 2.5865C116.01 2.6476 116.004 2.6618 116.094 2.60478C116.405 2.78399 116.658 2.99984 116.762 3.23201C116.112 4.17697 114.024 4.14643 113.32 4.63724C112.542 4.43969 113.646 4.16476 113.22 3.72486L112.167 4.45601C112.061 3.54159 110.098 2.93671 111.933 2.39906L110.281 2.35841C109.31 1.8452 107.974 1.64149 107.151 2.0264C106.371 1.82682 105.184 3.03856 105.862 2.32373L103.273 2.88993L103.249 2.66183C100.695 2.54575 97.9926 4.17492 95.0742 2.52734C94.2147 2.75747 93.3268 3.0406 91.889 2.77992L91.6079 1.98774C90.5041 2.26471 88.2945 1.19545 87.82 2.0223C86.6306 -0.10795 82.4638 1.55592 80.5229 1.17916L80.4496 2.21372C79.1156 2.15466 77.8326 2.44588 76.1748 2.86134L76.2767 3.77384C74.847 4.52329 72.6007 3.12411 70.3401 3.21982C70.4928 2.86953 71.0651 2.96116 71.4724 3.17296C68.7719 1.10992 65.7721 4.67192 63.3221 3.17097C62.7112 3.50293 62.2692 3.38892 61.8415 3.15879C61.8965 3.15675 61.9495 3.14039 61.9922 3.11392C61.9291 3.1017 61.8354 3.0997 61.7417 3.10174C61.4709 2.94492 61.1918 2.7616 60.8925 2.61497C61.1491 2.83696 61.3935 3.0203 61.6073 3.10584C61.1369 3.12417 60.422 3.23618 59.7215 3.46632L59.4241 2.48669C59.3671 2.49687 59.3223 2.50497 59.2632 2.51516C58.5749 2.15265 58.7113 2.98158 59.0758 3.71678C58.7235 3.87971 58.4018 4.07309 58.1513 4.30933C57.5933 2.72692 56.3143 4.84293 55.5526 3.15258C55.0822 3.97739 52.0314 3.77379 51.6607 5.50487C51.6363 5.28085 51.4306 5.17294 51.8073 5.15869C51.0273 4.9591 50.2474 4.76351 49.5488 5.25229L49.2168 4.00591L47.5123 5.682C46.4757 4.92236 46.0479 4.48048 47.0764 3.52126C44.5918 4.99573 45.0623 4.07518 42.9524 5.53744L43.0542 4.73096C42.3006 4.76151 41.093 5.84093 40.6368 5.17497C38.9505 3.64347 32.2848 4.96309 27.951 3.53953C28.7921 5.91416 25.9369 2.47653 25.7658 4.31555C25.5133 3.75549 24.9104 3.43571 25.611 2.94897C23.4013 3.50088 22.2894 2.05902 20.762 3.61088C20.5094 3.04675 21.2345 2.78608 21.0104 2.45412C20.8333 2.57428 20.3078 2.9428 20.0777 2.60677C19.8537 2.27277 20.4015 2.13634 20.7518 1.88992C18.4932 1.9836 18.2631 3.71466 18.1002 5.33781C16.9556 4.56799 16.3834 4.67803 15.5565 5.74316C15.1594 5.21161 14.4954 4.65565 15.8966 4.46421C15.699 4.43977 15.2979 4.39089 14.8091 4.33183C14.5647 4.30536 14.2959 4.28091 14.0189 4.2524L13.5994 4.22381L13.0067 4.20753C11.3836 4.18513 9.9274 4.33582 10.1087 4.98752C9.66265 4.6576 8.56291 4.89181 8.37147 5.04048C5.96832 4.96309 5.63432 4.84502 3.40225 4.96925L4.24135 5.18106C4.4226 5.73704 4.32076 5.94477 4.0112 5.98753C4.08656 6.67793 3.62423 7.05471 3.74439 8.29906L3.58354 8.13C3.01738 9.79999 3.15174 10.4333 3.26987 10.9058C3.38595 11.4353 3.48169 11.7938 2.83406 13.8039L3.80958 13.7488C4.86045 14.1113 4.55087 14.8669 4.07839 15.8444C3.60794 16.7385 2.97258 17.8301 3.37378 18.7506L3.93177 18.0867C4.64864 19.0928 1.07451 20.8973 0.811792 21.9074C0.628501 22.1273 0.51643 21.5591 0.382017 21.2536C-0.856215 23.897 1.66305 21.5958 1.95835 23.5672C1.26999 23.9297 0.204834 23.0987 0.0744938 24.4245C-0.483525 25.0844 2.31678 28.2717 0.990973 30.0801C1.52455 29.683 2.05405 29.2859 2.45525 30.2023C2.64669 31.6035 0.445159 33.9944 2.12125 35.2612C1.97666 35.4404 1.83616 35.5055 1.70378 35.5136C1.91966 36.0513 2.10094 36.9209 2.33922 37.7396C2.57749 38.4321 2.87687 39.6805 3.33102 39.9839C1.64271 40.8556 2.05409 43.4644 2.49602 45.3177C2.93999 47.23 3.41653 48.5171 1.86059 50.0873L1.86264 50.2258L6.73 50.0628L6.41235 50.3805C9.52829 50.5862 10.9477 49.8388 12.0251 49.0914C12.6564 49.3032 12.1452 49.5945 12.0576 49.7574C13.0209 49.8877 13.7623 49.9896 14.3814 50.0751C14.8824 50.126 15.2917 50.1199 15.6848 50.0445C16.4689 49.8979 17.1898 49.4763 18.483 48.7025L18.7519 49.7105C19.4525 49.124 23.2058 51.2929 26.2281 50.1158C26.1975 50.2319 26.1344 50.4254 25.8961 50.57C29.2952 49.3847 34.0342 53.3703 35.2786 49.6943L37.5229 48.788C34.6208 48.5008 37.9546 47.1934 36.7612 46.5804C37.9037 46.3665 39.7122 47.6903 38.3111 47.8797L38.0911 47.6944C37.5759 49.6108 41.6978 48.3745 41.6184 49.68C47.331 49.5863 52.8969 50.6474 58.247 50.7288L57.6299 49.2401L59.4954 49.3256C59.9841 49.6738 60.1532 50.4906 58.8213 50.4295C59.5219 51.2726 61.0554 49.7227 61.0921 49.3989C63.6989 50.0017 60.0738 51.1361 60.8741 51.1707L61.9597 51.0587L61.7153 50.8857C62.5951 50.2768 62.6745 49.6332 64.2732 49.7045C65.2853 50.0018 64.7925 50.623 65.1917 50.68C65.1876 50.7859 65.322 50.8347 65.8026 50.7227L68.1528 50.849L67.2119 49.6739C68.2546 49.0955 69.4236 49.7349 68.3382 48.403C69.9307 50.4579 77.1097 49.1403 78.0872 49.7798C79.5454 48.9203 80.9873 48.9367 82.7713 49.0406C82.3273 48.7962 82.0625 47.4723 83.6002 47.6373C83.0381 50.3643 86.4208 48.8205 87.6632 50.7838C86.5512 49.4824 92.0377 50.4621 90.2944 48.6169C91.5795 48.8348 90.3718 49.6352 91.3473 50.2787C94.4062 49.2197 98.0863 50.965 101.864 50.6086C101.921 50.2502 101.29 49.7024 102.1 49.1688L104.094 50.9589C104.84 50.7838 104.78 48.8918 106.145 50.1362C105.951 49.8347 105.664 49.3806 106.165 49.2645C113.568 51.0099 121.291 47.8369 128.808 51.1158C127.79 50.4213 128.47 50.3521 129.246 50.3256C128.741 50.1586 129.258 49.4397 129.158 48.955L132.307 50.3032C132.879 48.957 135.679 50.2115 136.007 48.9223L135.011 49.1545C136.337 47.6353 133.158 45.7759 133.351 43.8248C131.867 45.5539 129.439 41.2649 127.003 43.7393C126.466 43.3422 127.464 43.1101 127.175 42.66C126.557 43.495 125.812 43.67 124.431 43.2953L124.586 43.0876C120.706 43.2933 119.042 42.4665 114.684 41.9187L115.006 42.884C114.069 42.7557 113.872 42.4522 113.434 42.2119C112.361 43.6741 116.065 42.2934 115.088 43.9064C113.845 41.9431 108.481 43.8758 107.642 41.6478C106.2 41.6356 108.063 42.7638 106.624 42.7495L106.241 42.1468L105.876 42.9248C104.931 42.7985 104.455 42.0408 104.418 41.5296C104.646 41.5907 105.07 41.3871 105.314 41.3423C104.088 40.6315 101.86 41.5846 101.44 41.3525L102.825 41.7272C98.8907 42.2914 94.0905 41.4991 90.2903 42.7251L90.5795 43.1833C87.6774 44.0244 88.2558 42.6824 85.0706 43.0693L85.1867 42.9613C84.5513 43.4155 83.7 43.6436 82.8263 43.5926C83.6328 43.0591 81.3131 42.5561 82.3681 41.9655C79.2216 42.8698 80.8101 42.6783 78.7328 44.3687L78.2542 43.6151C77.5454 44.2974 77.4864 44.6579 75.8958 44.8513C77.2033 44.2057 74.8816 43.7027 76.3439 42.8453C73.0039 41.1937 71.3848 44.5112 69.8533 42.0979C68.3198 44.1874 72.7432 43.2588 71.8838 43.7048C72.6027 44.389 70.6191 45.2688 69.5703 45.057C68.5031 45.0122 67.7557 42.385 65.0735 42.4237C65.3403 42.4339 65.3587 42.2771 65.6255 42.2852C64.6214 41.7517 63.6581 43.0062 62.428 42.1427C61.7356 43.4053 60.8273 42.0693 60.6277 43.6823L63.0899 43.3076C61.6928 43.7292 60.3874 45.615 58.0881 44.7027C58.2674 44.3768 58.9516 43.9491 59.42 43.7109C58.748 43.2363 58.1248 44.0265 57.4283 43.5377C57.6279 41.9247 60.42 43.1854 61.9148 41.9573C61.1939 41.2771 59.0861 43.1263 59.8355 41.3789C58.7561 43.6008 57.1921 41.0979 55.3775 42.7944L55.4976 41.8271C55.2084 41.9778 54.6138 42.4359 54.0863 42.4094L55.0435 41.1569C53.5731 42.2261 52.2085 40.2243 50.7972 40.8047C53.7523 40.7741 51.4611 41.9675 52.7095 42.6742C49.0661 43.9694 50.6139 40.1468 46.5347 40.6091C47.0866 40.4727 48.6079 41.1896 47.7444 41.6376C46.9685 41.438 45.9421 41.0694 45.4655 40.5623C42.765 40.7639 45.8809 41.5541 44.7323 42.1488C43.8118 40.9716 43.4045 42.6274 42.2212 43.0062L42.211 42.0246C39.1317 41.3912 41.3964 44.0713 38.6226 43.3096L39.7937 41.9471L38.3477 42.2995L38.6451 41.1814C37.0728 42.0103 36.582 41.7965 35.0403 41.4829C35.3987 42.1753 34.8387 43.2648 33.4742 43.2974C32.5435 42.7129 33.9955 42.3626 32.0628 42.5031C32.4986 41.8881 32.9772 41.1162 33.8183 42.0225C33.9039 41.7027 34.2481 41.4035 34.3377 41.0898C33.3357 40.4178 31.8205 40.937 31.1199 40.9451C31.3908 40.9838 31.7106 41.0348 31.8776 41.1753L29.0732 42.5357C28.6312 42.1671 28.9815 41.8698 29.3298 41.5806C28.7616 41.6865 28.3685 42.1366 27.5335 42.2201C27.7494 41.4218 27.6985 40.5989 28.8797 40.2242L26.2077 41.1101C26.0285 40.7639 24.8371 40.157 25.1833 39.8617C23.7007 39.3933 21.5521 41.4135 19.5889 40.7924C19.485 40.9471 19.2834 41.0938 18.8659 41.2099C17.9434 41.1183 17.0737 40.8291 16.1614 40.6988C15.7031 40.6336 15.2368 40.6071 14.748 40.6662C14.5036 40.6967 14.2531 40.7477 13.9965 40.8251C13.8702 40.8678 13.7378 40.9146 13.6055 40.9614C13.5179 41.0123 13.5077 41.0756 13.4487 41.1428C13.3855 41.1428 13.2654 39.7111 13.3285 39.7111C13.1656 39.874 13.0759 40.326 13.0596 40.8026C13.0189 41.2791 13.0556 41.7842 12.3224 42.053C11.2064 42.5113 12.5566 40.8332 12.5403 40.434C12.0943 41.0246 10.6891 42.1162 10.2451 41.8535C10.3042 41.658 10.4284 41.3973 10.6402 41.0877C10.797 41.0836 10.7889 41.1936 10.7767 41.3199C10.85 41.3301 10.9213 41.3402 11.0435 41.2954ZM10.1718 25.9439C10.3795 26.3512 11.0129 27.1698 10.4345 27.4672C9.30829 27.0028 9.84799 26.6424 10.1718 25.9439ZM19.5706 9.78372C19.2671 10.1096 18.7946 9.9487 18.2651 9.57601C18.65 9.49455 19.0879 9.53322 19.5706 9.78372ZM109.012 2.94288C108.994 2.95917 108.982 2.97141 108.97 2.98974C108.055 2.6089 108.379 2.75959 109.012 2.94288ZM110.909 3.37048C111.1 3.23199 111.086 3.09561 111.006 2.95916C110.874 3.20762 110.448 3.22597 109.964 3.15469C110.096 3.41333 110.34 3.59043 110.909 3.37048ZM65.4055 50.3236L65.0369 50.0669C65.8698 49.7838 65.6356 50.0385 65.4055 50.3236Z" fill="#EC008C"/>
<path d="M15.9313 11.1299C15.8132 10.9629 15.7826 10.7796 15.7562 10.5942C15.5953 10.7592 15.5912 10.9506 15.9313 11.1299Z" fill="#EC008C"/>
<path d="M19.5259 40.7802L19.591 40.7924C19.6256 40.7353 19.644 40.6723 19.6541 40.6152L19.5259 40.7802Z" fill="#EC008C"/>
<path d="M81.5433 11.7C81.1543 11.5595 80.9343 11.3782 80.7918 11.1929C80.7693 11.4332 80.9466 11.6369 81.5433 11.7Z" fill="#EC008C"/>
<path d="M120.953 1.70068L119.739 1.95724C120.326 1.90837 120.535 2.12217 120.833 2.27695C120.806 2.04885 120.574 1.71698 120.953 1.70068Z" fill="#EC008C"/>
<path d="M131.472 7.77965C131.679 7.65949 131.848 7.76735 132.058 7.64515L132.144 7.18896C131.315 7.21951 130.734 7.58821 131.472 7.77965Z" fill="#EC008C"/>
<path d="M122.077 4.96505C122.175 5.79189 122.936 5.51287 123.786 5.35809C123.737 5.36216 123.686 5.36827 123.637 5.35809C123.888 4.20132 122.979 4.58421 122.077 4.96505Z" fill="#EC008C"/>
<path d="M123.983 5.32976C124.244 5.28903 124.513 5.26864 124.769 5.30937C124.869 4.84503 124.452 5.21367 123.983 5.32976Z" fill="#EC008C"/>
<path d="M113.312 2.82256C113.715 3.03436 113.564 1.76557 113.792 2.1016C114.244 1.05074 111.104 3.37446 113.312 2.82256Z" fill="#EC008C"/>
<path d="M122.46 6.66772L121.985 7.49048L122.768 7.69011L122.46 6.66772Z" fill="#EC008C"/>
<path d="M116.051 6.9385L117.409 7.22166C117.389 7.05059 117.562 6.94872 117.774 6.87336C116.937 6.84078 116.018 6.63709 116.051 6.9385Z" fill="#EC008C"/>
<path d="M117.774 6.8734C118.212 6.89376 118.625 6.87134 118.867 6.70435C118.633 6.71453 118.124 6.7512 117.774 6.8734Z" fill="#EC008C"/>
<path d="M120.505 7.77967L119.548 7.70435L120.91 7.99559L120.505 7.77967Z" fill="#EC008C"/>
<path d="M101.438 6.74316L99.9558 7.03652C99.8051 7.38681 100.208 7.59863 100.762 7.46014C101.117 7.21575 101.667 7.08123 101.438 6.74316Z" fill="#EC008C"/>
<path d="M105.925 9.53514C105.524 9.32333 105.497 9.09726 105.271 8.76123L105.227 10.0259L105.925 9.53514Z" fill="#EC008C"/>
<path d="M101.599 9.83252C101.453 10.1828 99.4447 10.8386 101.326 10.7592C101.477 10.4109 102.962 10.1197 101.599 9.83252Z" fill="#EC008C"/>
<path d="M79.6269 8.21557L79.5719 6.14233L79.2501 8.23185L79.6269 8.21557Z" fill="#EC008C"/>
<path d="M59.5504 13.195C61.3079 13.6919 59.9679 11.914 61.5544 12.5372C61.9678 12.0464 60.2551 12.0301 60.6787 11.6064C59.6197 12.1217 59.0637 11.8305 59.5504 13.195Z" fill="#EC008C"/>
<path d="M60.6787 11.6043C60.8498 11.5228 61.029 11.423 61.2225 11.2886C60.9149 11.421 60.7683 11.5188 60.6787 11.6043Z" fill="#EC008C"/>
<path d="M135.547 51.8104L134.818 51.1118L134.419 51.3766L135.547 51.8104Z" fill="#EC008C"/>
<path d="M136.588 49.8369L136.854 51.1606L137.533 49.9632C137.278 50.0223 136.781 50.1363 136.588 49.8369Z" fill="#EC008C"/>
<path d="M12.8337 22.8034L12.516 22.7178C12.1718 22.8929 12.1453 23.1577 12.0923 23.6872L12.8337 22.8034Z" fill="#EC008C"/>
<path d="M11.8725 37.8699L10.677 38.3627L11.846 38.1346L11.8725 37.8699Z" fill="#EC008C"/>
<path d="M13.4894 38.7333C13.5057 38.6845 13.3468 38.9493 13.3428 38.9004C13.4527 38.6825 12.8764 40.2241 13.4894 38.7333Z" fill="#EC008C"/>
</g>
<defs>
<clipPath id="clip0_83_818">
<rect width="145.39" height="51.8102" fill="white"/>
</clipPath>
</defs>
</svg>
