<svg width="235" height="211" viewBox="0 0 235 211" fill="none" xmlns="http://www.w3.org/2000/svg">
<path d="M104.935 209.884C92.6424 208.427 83.0112 206.203 72.72 202.447C63.8836 199.221 58.6809 196.604 58.6863 195.387C58.6991 192.5 60.1151 182.966 60.9017 180.47C63.7349 171.479 69.1163 166.972 77.0953 166.906C81.6846 166.869 83.5181 167.91 86.7253 172.372C89.688 176.495 91.0644 177.364 94.6011 177.348C97.5054 177.334 98.5376 176.916 103.181 173.874C106.791 171.509 108.126 171.049 112.836 170.545C117.17 170.082 119.175 169.125 122.894 165.746C126.367 162.592 128.257 160.147 130.266 156.214C132.263 152.304 132.932 149.37 132.676 145.633C132.504 143.108 132.028 141.612 129.882 136.842C127.42 131.374 127.293 130.92 127.267 127.528C127.244 124.588 127.099 123.861 126.44 123.394C125.049 122.406 121.786 122.219 115.236 122.751C108.55 123.295 105.281 122.994 103.81 121.702C103.179 121.147 103.172 120.801 103.742 118.213C104.907 112.925 103.075 109.888 96.3937 106.03C94.4198 104.89 91.2605 102.554 89.373 100.84C85.3823 97.2157 83.131 96.0058 77.5337 94.4774C73.2287 93.3019 69.7422 91.7886 68.8006 90.6867C68.1524 89.9282 68.292 86.0667 69.2205 79.0738C69.896 73.9859 69.3327 69.9952 67.939 69.9952C66.6586 69.9952 64.9212 72.185 63.7146 75.3197C61.8215 80.238 60.3629 80.9418 61.5734 76.3529C62.9612 71.092 61.5527 57.6237 59.5502 57.0065C58.2178 56.5958 57.6131 57.207 55.842 60.7547C54.8831 62.6756 51.4492 68.0792 48.2111 72.7628C41.0755 83.0838 38.092 88.8464 36.5018 95.3787C35.3725 100.018 35.3179 100.126 33.7534 100.834C30.1436 102.467 22.1353 108.188 17.5014 112.444C12.4854 117.052 9.92651 119.924 5.51969 125.895C2.74283 129.657 3.02457 129.857 1.74615 123.217C-1.72367 105.197 -0.00338595 86.7021 6.73837 69.5452C19.5024 37.0624 51.4128 11.029 88.3167 2.99137C101.587 0.101164 102.729 -0.0152933 117.649 0.00117749C132.605 0.0176891 134.283 0.201547 148.167 3.34423C168.604 7.97028 189.454 19.3446 204.094 33.8543C219.922 49.5408 229.564 67.5443 233.484 88.7294C234.474 94.0794 234.632 96.153 234.667 104.27C234.718 116.21 233.594 123.916 230.303 134.163C222.893 157.234 207.412 176.867 185.474 191.014C177.037 196.454 163.323 202.688 154.008 205.316C149.304 206.644 139.227 208.701 133.651 209.471C126.867 210.409 111.257 210.633 104.935 209.884Z" fill="#510051"/>
<path d="M208.929 181.858V190.692H206.656V181.858H203.152V180.152H212.441V181.858H208.929ZM222.809 190.692V184.304C222.809 184.159 222.809 184.015 222.809 183.87C222.814 183.725 222.84 183.105 222.886 182.007C222.522 183.349 222.252 184.284 222.078 184.813L220.121 190.692H218.504L216.547 184.813L215.723 182.007C215.785 183.164 215.815 183.93 215.815 184.304V190.692H213.797V180.152H216.84L218.781 186.047L218.95 186.615L219.32 188.029L219.805 186.339L221.8 180.152H224.827V190.692H222.809Z" fill="#510051"/>
</svg>
