<svg width="637" height="191" viewBox="0 0 637 191" fill="none" xmlns="http://www.w3.org/2000/svg">
<path d="M129.322 82.8185C129.322 89.2196 128.199 96.463 125.952 104.549C122.974 115.161 119.238 120.467 114.744 120.467C110.811 120.467 107.946 117.969 106.148 112.971C105.137 110.164 104.379 106.009 103.873 100.506C102.525 106.851 101.457 111.09 100.671 113.224C98.592 119.007 96.064 121.899 93.0864 121.899C90.8954 121.899 88.901 120.973 87.1033 119.12C84.7438 116.705 82.9741 109.125 81.7943 96.3788C80.9516 87.6755 80.5303 79.281 80.5303 71.1954C80.5303 66.8718 82.3842 64.71 86.0921 64.71C89.4067 64.71 91.064 65.468 91.064 66.9841C91.064 67.6579 90.8392 68.3878 90.3898 69.174C89.9966 69.9039 89.6033 70.6339 89.21 71.3638C88.4797 72.8237 88.1145 75.8839 88.1145 80.5444C88.1145 102.05 89.7718 112.803 93.0864 112.803C94.2662 112.803 95.6988 108.62 97.3842 100.253C99.4066 90.3707 100.418 82.7904 100.418 77.5123C100.418 76.7262 100.952 75.9401 102.019 75.154C103.086 74.3117 104.041 73.8906 104.884 73.8906C106.57 73.8906 108.086 74.4802 109.435 75.6593C110.839 76.8385 111.626 78.2703 111.794 79.9548C110.671 81.5832 110.109 84.5872 110.109 88.9669C110.109 104.745 111.598 112.634 114.575 112.634C117.44 112.634 119.659 108.142 121.232 99.1582C122.3 92.9255 122.834 87.1982 122.834 81.9762C122.834 79.7864 122.693 78.158 122.412 77.0911C122.187 76.0243 121.569 74.424 120.558 72.2903C119.659 70.4935 119.21 69.1459 119.21 68.2475C119.21 66.8999 119.519 65.6646 120.137 64.5416C120.923 63.1378 121.935 62.4359 123.171 62.4359C124.912 62.4359 126.457 65.4119 127.805 71.3638C128.817 76.0243 129.322 79.8425 129.322 82.8185Z" fill="black"/>
<path d="M168.255 106.823C168.255 114.066 168.03 119.176 167.581 122.152C167.3 123.892 166.12 124.763 164.041 124.763C160.895 124.763 159.491 123.191 159.828 120.046C157.019 121.394 154.097 122.068 151.064 122.068C148.142 122.068 145.362 121.338 142.721 119.878C139.575 118.137 138.002 115.919 138.002 113.224C138.002 110.585 139.8 108.114 143.395 105.812C146.654 103.734 149.715 102.696 152.581 102.696H159.744V100.674C159.8 94.7785 158.058 91.8306 154.519 91.8306C150.081 91.8306 147.862 93.9081 147.862 98.0632C147.862 99.467 147.075 100.169 145.502 100.169C144.547 100.169 143.536 99.7478 142.468 98.9055C141.457 98.0071 140.951 97.0806 140.951 96.1261C140.951 92.9817 142.075 90.3987 144.322 88.3773C146.569 86.3559 149.266 85.3452 152.412 85.3452C162.974 85.3452 168.255 92.5044 168.255 106.823ZM159.744 109.855C159.744 108.732 158.901 108.17 157.215 108.17C150.193 108.17 146.682 109.827 146.682 113.14C146.682 114.936 148.227 115.835 151.317 115.835C153.227 115.835 155.024 115.301 156.71 114.235C158.732 113.055 159.744 111.595 159.744 109.855Z" fill="black"/>
<path d="M193.704 90.9884C193.704 92.5044 191.373 93.5713 186.71 94.1889C186.597 95.4242 186.541 98.2317 186.541 102.611V108.17C186.541 109.293 186.71 110.95 187.047 113.14C187.44 115.33 187.637 116.958 187.637 118.025C187.637 118.923 187.187 119.737 186.288 120.467C185.389 121.141 184.49 121.478 183.592 121.478C182.187 121.478 181.007 120.271 180.052 117.856C179.322 116.003 178.957 114.207 178.957 112.466V94.6101C176.373 94.217 174.884 93.9643 174.491 93.852C173.03 93.4028 172.299 92.7571 172.299 91.9148C172.299 91.6902 172.356 91.4375 172.468 91.1568C173.929 89.0793 175.558 88.0405 177.356 88.0405C177.468 88.0405 177.637 88.0405 177.861 88.0405C178.086 88.0966 178.255 88.1247 178.367 88.1247C179.547 88.1247 180.108 86.749 180.052 83.9977V77.8492C179.715 77.2315 179.547 76.6981 179.547 76.2489C179.547 75.519 179.968 74.8732 180.811 74.3117C181.71 73.6941 182.552 73.3853 183.339 73.3853C184.519 73.3853 185.642 73.9468 186.71 75.0698C187.777 76.1366 188.311 77.2877 188.311 78.523C188.311 79.8706 188.086 81.2182 187.637 82.5658C187.243 83.8573 187.075 85.2049 187.131 86.6086V86.9456C191.513 87.3948 193.704 88.7423 193.704 90.9884Z" fill="black"/>
<path d="M226.822 111.624C226.822 113.364 225.502 115.414 222.861 117.772C220.502 119.962 218.367 121.338 216.457 121.899C214.603 122.461 212.833 122.741 211.148 122.741C206.709 122.741 203.226 121.338 200.698 118.53C198.226 115.723 196.99 112.101 196.99 107.665C196.99 103.341 198.142 98.5125 200.445 93.1782C203.198 86.777 206.4 83.5765 210.052 83.5765C212.075 83.5765 214.518 84.3626 217.384 85.9348C220.417 87.6754 222.187 89.4161 222.693 91.1568C223.142 92.6728 223.367 94.3854 223.367 96.2945C223.367 98.0352 223.002 100 222.271 102.19C221.372 104.998 220.249 106.402 218.9 106.402C217.945 106.402 217.047 106.121 216.204 105.559C215.193 104.942 214.687 104.184 214.687 103.285C214.687 103.229 214.94 102.583 215.445 101.348C215.726 100.787 215.867 99.2424 215.867 96.7156C215.867 94.6381 215.782 93.2905 215.614 92.6728C215.277 90.9322 214.49 90.0618 213.254 90.0618C210.502 90.0618 208.367 92.4482 206.85 97.221C205.726 100.758 205.165 104.324 205.165 107.918C205.165 113.926 207.075 116.93 210.895 116.93C212.412 116.93 214.153 116.144 216.12 114.571C217.917 113.112 219.181 111.624 219.912 110.107C220.811 108.311 221.906 107.412 223.198 107.412C224.041 107.412 224.855 107.918 225.642 108.928C226.429 109.883 226.822 110.781 226.822 111.624Z" fill="black"/>
<path d="M260.024 122.489C258.957 123.556 257.552 124.089 255.81 124.089C254.631 124.089 253.423 123.359 252.187 121.899C252.243 116.958 252.271 113.14 252.271 110.444C252.271 97.9791 250.445 91.7464 246.794 91.7464C243.03 91.7464 241.148 96.7718 241.148 106.823C241.148 107.384 241.176 108.198 241.232 109.265C241.232 110.332 241.232 111.146 241.232 111.708C241.232 112.55 241.372 113.842 241.653 115.582C241.934 117.267 242.075 118.53 242.075 119.372C242.075 120.102 241.625 120.748 240.726 121.31C239.884 121.927 239.097 122.236 238.367 122.236C236.962 122.236 235.754 121.674 234.743 120.551C233.788 119.372 233.311 118.081 233.311 116.677L233.816 67.9948C233.816 67.8263 233.788 67.6018 233.732 67.321C233.676 67.0402 233.648 66.8437 233.648 66.7315C233.648 64.71 234.771 63.6993 237.018 63.6993C238.086 63.6993 239.322 64.2047 240.726 65.2154C242.131 66.17 242.833 67.1526 242.833 68.1633C242.833 69.3986 242.552 71.2235 241.99 73.6379C241.485 76.0524 241.232 77.8773 241.232 79.1126C241.232 80.6848 241.288 83.1835 241.4 86.6087C242.636 85.8787 243.676 85.5137 244.518 85.5137C246.709 85.5137 249.097 86.0472 251.681 87.114C254.996 88.5178 257.299 90.7919 258.591 93.9363C259.546 96.2946 260.024 99.5513 260.024 103.706L260.024 122.489Z" fill="black"/>
<path d="M295.67 69.932C295.67 71.1673 295.501 72.7676 295.164 74.7328C294.715 77.3719 294.434 78.9441 294.322 79.4495C294.153 81.1901 293.872 86.3279 293.479 94.8627C293.142 103.398 292.973 108.114 292.973 109.013C292.973 114.403 293.563 118.446 294.743 121.141C293.788 122.713 292.692 123.499 291.457 123.499C290.164 123.499 289.013 122.994 288.001 121.983C286.99 121.029 286.428 119.906 286.316 118.614C283.676 121.029 280.979 122.236 278.226 122.236C274.125 122.236 270.951 120.804 268.704 117.94C266.625 115.358 265.586 111.96 265.586 107.749C265.586 102.808 266.597 97.7825 268.619 92.6729C271.204 86.2156 274.575 82.9869 278.732 82.9869C281.204 82.9869 283.732 84.0819 286.316 86.2717C286.597 83.6327 286.737 76.8946 286.737 66.0576C286.737 65.0469 287.496 64.5416 289.013 64.5416C290.81 64.5416 292.355 64.9908 293.648 65.8892C294.996 66.7876 295.67 68.1352 295.67 69.932ZM285.895 98.4844C285.895 96.5753 285.473 94.8346 284.631 93.2624C283.563 91.3533 282.159 90.3988 280.417 90.3988C277.889 90.3988 275.951 92.8975 274.603 97.8948C273.591 101.488 273.086 105.026 273.086 108.507C273.086 113.729 274.603 116.34 277.636 116.34C280.782 116.34 283.058 114.01 284.462 109.349C285.417 106.205 285.895 102.583 285.895 98.4844Z" fill="black"/>
<path d="M331.821 104.549C331.821 109.602 330.557 113.926 328.029 117.519C325.108 121.618 321.232 123.668 316.4 123.668C311.456 123.668 307.72 121.983 305.192 118.614C302.889 115.638 301.737 111.595 301.737 106.486C301.737 101.432 303.001 96.6595 305.529 92.1675C308.451 86.8332 312.243 84.1661 316.906 84.1661C318.366 84.1661 320.192 84.8118 322.383 86.1033C328.675 89.8653 331.821 96.0138 331.821 104.549ZM324.406 104.38C324.406 95.7892 322.327 91.4937 318.17 91.4937C315.192 91.4937 312.945 93.3186 311.428 96.9683C310.305 99.7197 309.743 102.836 309.743 106.317C309.743 113.785 311.962 117.519 316.4 117.519C319.265 117.519 321.4 115.975 322.805 112.887C323.872 110.529 324.406 107.693 324.406 104.38Z" fill="black"/>
<path d="M367.889 96.1261C367.776 97.5299 367.411 100 366.793 103.538C366.231 106.626 365.951 109.097 365.951 110.95C365.951 112.634 366.035 115.161 366.203 118.53C366.372 121.899 366.456 124.426 366.456 126.11C366.456 129.592 366.119 132.175 365.445 133.859C364.658 135.993 363.17 137.705 360.979 138.997C358.788 140.344 356.512 141.018 354.153 141.018C351.681 141.018 348.619 140.344 344.967 138.997C340.585 137.425 338.394 135.684 338.394 133.775C338.394 131.304 339.546 130.069 341.85 130.069C342.917 130.069 343.647 130.378 344.041 130.995C344.771 132.118 345.248 132.792 345.473 133.017C345.754 133.241 346.681 133.494 348.254 133.775C349.827 134.112 350.923 134.28 351.541 134.28C356.597 134.28 359.125 131.108 359.125 124.763C359.125 122.91 359.041 121.338 358.872 120.046C356.456 122.124 353.563 123.162 350.192 123.162C348.788 123.162 347.215 122.769 345.473 121.983C343.732 121.197 342.411 120.271 341.512 119.204C339.771 117.182 338.9 114.178 338.9 110.192C338.9 105.419 339.996 100.169 342.187 94.4416C344.883 87.4228 348.17 83.9135 352.046 83.9135C354.406 83.9135 356.653 85.0084 358.788 87.1982C360.361 89.2758 361.934 91.3253 363.507 93.3467C363.956 93.9082 364.658 94.4136 365.614 94.8628C366.793 95.4243 367.552 95.8454 367.889 96.1261ZM359.378 101.18C359.378 100.337 358.984 99.6355 358.198 99.074C357.861 93.9082 356.063 91.3253 352.805 91.3253C350.951 91.3253 349.406 93.9362 348.17 99.1582C347.271 103.145 346.821 106.598 346.821 109.518C346.821 115.021 348.254 117.772 351.119 117.772C353.816 117.772 355.951 115.582 357.524 111.202C358.76 107.833 359.378 104.492 359.378 101.18Z" fill="black"/>
<path d="M442.72 66.6472C442.72 67.4333 442.467 68.079 441.962 68.5844C441.119 69.5389 440.67 70.0443 440.613 70.1004C440.276 70.6619 439.939 72.1219 439.602 74.4802C438.198 85.9348 437.495 97.2491 437.495 108.423C437.495 114.712 438.619 118.249 440.866 119.035V121.31C440.192 122.713 439.153 123.415 437.748 123.415C434.883 123.415 432.72 120.916 431.259 115.919C430.192 112.382 429.658 108.676 429.658 104.801C429.658 96.3226 429.883 89.2477 430.332 83.5765C428.647 90.1461 426.934 96.7438 425.192 103.369C422.046 113.589 419.012 118.699 416.091 118.699C412.776 118.699 409.855 115.694 407.327 109.686C404.967 104.24 402.074 95.0873 398.647 82.2289C398.31 86.0471 398.142 89.9496 398.142 93.9362C398.142 102.19 398.366 108.17 398.816 111.876C398.872 112.55 399.181 113.645 399.743 115.161C400.361 116.621 400.67 117.772 400.67 118.614C400.67 120.467 399.125 121.394 396.035 121.394C392.383 121.394 390.557 116.481 390.557 106.654C390.557 102.668 390.782 96.7157 391.231 88.7985C391.681 80.8813 391.906 74.9574 391.906 71.0269C391.906 70.5777 391.681 70.1004 391.231 69.5951C390.782 69.0897 390.557 68.6125 390.557 68.1633C390.557 65.0188 393.366 63.4466 398.984 63.4466C400.276 63.4466 401.821 64.2608 403.619 65.8892C403.788 67.6298 404.068 70.2689 404.462 73.8064C405.024 78.7476 406.344 85.2891 408.422 93.4309C411.175 103.931 413.563 109.181 415.585 109.181C416.035 109.181 416.625 108.311 417.355 106.57C418.759 103.201 420.136 98.4563 421.484 92.336C422.495 87.4509 423.507 82.5658 424.518 77.6807C424.967 75.3786 425.782 72.0657 426.962 67.7421C428.141 64.5416 430.613 62.9413 434.377 62.9413C435.726 62.9413 437.355 63.2501 439.265 63.8678C441.568 64.6539 442.72 65.5804 442.72 66.6472Z" fill="black"/>
<path d="M478.366 113.729C478.366 116.537 476.456 118.727 472.636 120.299C469.658 121.534 466.54 122.152 463.282 122.152C454.63 122.152 450.304 117.239 450.304 107.412C450.304 103.369 451.287 98.8775 453.254 93.9362C455.669 87.872 458.591 84.8399 462.018 84.8399C465.108 84.8399 468.422 86.2156 471.961 88.9669C475.557 91.7183 477.355 94.582 477.355 97.5579C477.355 101.264 475.697 104.212 472.383 106.402C469.461 108.367 465.978 109.35 461.933 109.35C461.147 109.35 459.883 108.872 458.141 107.918C458.366 113.252 459.939 115.919 462.86 115.919C465.332 115.919 467.748 115.217 470.108 113.813C472.523 112.41 474.068 111.708 474.742 111.708C477.158 111.708 478.366 112.382 478.366 113.729ZM469.181 97.8106C469.181 96.4069 468.759 95.0873 467.917 93.852C467.13 92.5606 466.063 91.9148 464.714 91.9148C462.86 91.9148 461.428 92.729 460.417 94.3574C459.574 95.7611 459.153 97.4176 459.153 99.3267C459.153 100.394 459.518 101.264 460.248 101.938C460.978 102.611 461.905 102.948 463.029 102.948C467.13 102.948 469.181 101.236 469.181 97.8106Z" fill="black"/>
<path d="M514.096 69.932C514.096 71.1673 513.928 72.7676 513.591 74.7328C513.141 77.3719 512.86 78.9441 512.748 79.4495C512.579 81.1901 512.298 86.3279 511.905 94.8627C511.568 103.398 511.4 108.114 511.4 109.013C511.4 114.403 511.989 118.446 513.169 121.141C512.214 122.713 511.119 123.499 509.883 123.499C508.591 123.499 507.439 122.994 506.428 121.983C505.416 121.029 504.855 119.906 504.742 118.614C502.102 121.029 499.405 122.236 496.652 122.236C492.551 122.236 489.377 120.804 487.13 117.94C485.051 115.358 484.012 111.96 484.012 107.749C484.012 102.808 485.023 97.7825 487.046 92.6729C489.63 86.2156 493.001 82.9869 497.158 82.9869C499.63 82.9869 502.158 84.0819 504.742 86.2717C505.023 83.6327 505.164 76.8946 505.164 66.0576C505.164 65.0469 505.922 64.5416 507.439 64.5416C509.237 64.5416 510.782 64.9908 512.074 65.8892C513.422 66.7876 514.096 68.1352 514.096 69.932ZM504.321 98.4844C504.321 96.5753 503.9 94.8346 503.057 93.2624C501.989 91.3533 500.585 90.3988 498.843 90.3988C496.315 90.3988 494.377 92.8975 493.029 97.8948C492.018 101.488 491.512 105.026 491.512 108.507C491.512 113.729 493.029 116.34 496.062 116.34C499.208 116.34 501.484 114.01 502.888 109.349C503.843 106.205 504.321 102.583 504.321 98.4844Z" fill="black"/>
<path d="M531.034 76.9227C531.034 78.158 530.613 79.1687 529.77 79.9548C528.927 80.7409 527.888 81.134 526.652 81.134C525.192 81.134 523.815 80.6286 522.523 79.6179C521.287 78.6072 520.669 77.3719 520.669 75.912C520.669 74.6767 521.09 73.666 521.933 72.8799C522.832 72.0938 523.927 71.7007 525.22 71.7007C526.736 71.7007 528.085 72.2061 529.265 73.2168C530.444 74.1714 531.034 75.4067 531.034 76.9227ZM530.276 88.7143C530.276 89.725 530.051 91.1568 529.602 93.0098C529.152 94.8627 528.927 96.2946 528.927 97.3053V114.656C528.927 115.723 529.236 117.407 529.854 119.709C529.012 121.001 528.085 121.646 527.073 121.646C523.534 121.646 521.596 119.878 521.259 116.34C520.697 109.771 520.416 104.829 520.416 101.517C520.416 95.9577 520.641 91.2972 521.09 87.5351C521.034 87.2544 521.006 86.9736 521.006 86.6929C521.006 85.6822 521.793 85.1768 523.366 85.1768C524.77 85.1768 526.175 85.4576 527.579 86.0191C529.377 86.6367 530.276 87.5351 530.276 88.7143Z" fill="black"/>
<path d="M564.995 106.823C564.995 114.066 564.77 119.176 564.32 122.152C564.04 123.892 562.86 124.763 560.781 124.763C557.635 124.763 556.231 123.191 556.568 120.046C553.759 121.394 550.837 122.068 547.804 122.068C544.882 122.068 542.101 121.338 539.461 119.878C536.315 118.137 534.742 115.919 534.742 113.224C534.742 110.585 536.54 108.114 540.135 105.812C543.394 103.734 546.455 102.696 549.32 102.696H556.483V100.674C556.54 94.7785 554.798 91.8306 551.259 91.8306C546.82 91.8306 544.601 93.9081 544.601 98.0632C544.601 99.467 543.815 100.169 542.242 100.169C541.287 100.169 540.276 99.7478 539.208 98.9055C538.197 98.0071 537.691 97.0806 537.691 96.1261C537.691 92.9817 538.815 90.3987 541.062 88.3773C543.309 86.3559 546.006 85.3452 549.152 85.3452C559.714 85.3452 564.995 92.5044 564.995 106.823ZM556.483 109.855C556.483 108.732 555.641 108.17 553.955 108.17C546.933 108.17 543.422 109.827 543.422 113.14C543.422 114.936 544.967 115.835 548.056 115.835C549.967 115.835 551.764 115.301 553.45 114.235C555.472 113.055 556.483 111.595 556.483 109.855Z" fill="black"/>
<path d="M561.823 68.1038H572.408V70.3413H568.6V79.5837H565.638V70.3413H561.823V68.1038Z" fill="black"/>
<path d="M573.939 68.1038H577.709L580.325 74.2474L582.956 68.1038H586.718V79.5837H583.917V71.1871L581.271 77.3769H579.394L576.747 71.1871V79.5837H573.939V68.1038Z" fill="black"/>
</svg>
